G75*
%MOIN*%
%OFA0B0*%
%FSLAX25Y25*%
%IPPOS*%
%LPD*%
%AMOC8*
5,1,8,0,0,1.08239X$1,22.5*
%
%ADD10R,0.01587X0.05131*%
%ADD11R,0.01587X0.04737*%
%ADD12R,0.02965X0.05524*%
%ADD13R,0.05131X0.04737*%
%ADD14R,0.03950X0.04343*%
%ADD15C,0.08200*%
%ADD16C,0.13800*%
%ADD17C,0.04737*%
%ADD18R,0.01981X0.05524*%
%ADD19R,0.07874X0.08661*%
%ADD20R,0.04737X0.02769*%
%ADD21R,0.03871X0.03635*%
%ADD22R,0.05052X0.04934*%
%ADD23R,0.05524X0.04934*%
%ADD24R,0.10209X0.04934*%
%ADD25R,0.02965X0.12257*%
%ADD26C,0.01990*%
%ADD27R,0.04737X0.05131*%
%ADD28R,0.03300X0.05800*%
%ADD29C,0.00500*%
%ADD30C,0.05800*%
%ADD31C,0.05000*%
%ADD32C,0.06706*%
D10*
X0153928Y0131796D03*
X0305928Y0131796D03*
X0457928Y0131796D03*
X0457928Y0368796D03*
X0305928Y0368796D03*
X0153928Y0368796D03*
D11*
X0152354Y0368993D03*
X0150779Y0368993D03*
X0149204Y0368993D03*
X0147629Y0368993D03*
X0146054Y0368993D03*
X0144480Y0368993D03*
X0142905Y0368993D03*
X0141330Y0368993D03*
X0139755Y0368993D03*
X0139755Y0361906D03*
X0141330Y0361906D03*
X0142905Y0361906D03*
X0144480Y0361906D03*
X0146054Y0361906D03*
X0147629Y0361906D03*
X0149204Y0361906D03*
X0150779Y0361906D03*
X0152354Y0361906D03*
X0153928Y0361906D03*
X0291755Y0361906D03*
X0293330Y0361906D03*
X0294905Y0361906D03*
X0296480Y0361906D03*
X0298054Y0361906D03*
X0299629Y0361906D03*
X0301204Y0361906D03*
X0302779Y0361906D03*
X0304354Y0361906D03*
X0305928Y0361906D03*
X0304354Y0368993D03*
X0302779Y0368993D03*
X0301204Y0368993D03*
X0299629Y0368993D03*
X0298054Y0368993D03*
X0296480Y0368993D03*
X0294905Y0368993D03*
X0293330Y0368993D03*
X0291755Y0368993D03*
X0443755Y0368993D03*
X0445330Y0368993D03*
X0446905Y0368993D03*
X0448480Y0368993D03*
X0450054Y0368993D03*
X0451629Y0368993D03*
X0453204Y0368993D03*
X0454779Y0368993D03*
X0456354Y0368993D03*
X0456354Y0361906D03*
X0457928Y0361906D03*
X0454779Y0361906D03*
X0453204Y0361906D03*
X0451629Y0361906D03*
X0450054Y0361906D03*
X0448480Y0361906D03*
X0446905Y0361906D03*
X0445330Y0361906D03*
X0443755Y0361906D03*
X0443755Y0131993D03*
X0445330Y0131993D03*
X0446905Y0131993D03*
X0448480Y0131993D03*
X0450054Y0131993D03*
X0451629Y0131993D03*
X0453204Y0131993D03*
X0454779Y0131993D03*
X0456354Y0131993D03*
X0456354Y0124906D03*
X0457928Y0124906D03*
X0454779Y0124906D03*
X0453204Y0124906D03*
X0451629Y0124906D03*
X0450054Y0124906D03*
X0448480Y0124906D03*
X0446905Y0124906D03*
X0445330Y0124906D03*
X0443755Y0124906D03*
X0305928Y0124906D03*
X0304354Y0124906D03*
X0302779Y0124906D03*
X0301204Y0124906D03*
X0299629Y0124906D03*
X0298054Y0124906D03*
X0296480Y0124906D03*
X0294905Y0124906D03*
X0293330Y0124906D03*
X0291755Y0124906D03*
X0291755Y0131993D03*
X0293330Y0131993D03*
X0294905Y0131993D03*
X0296480Y0131993D03*
X0298054Y0131993D03*
X0299629Y0131993D03*
X0301204Y0131993D03*
X0302779Y0131993D03*
X0304354Y0131993D03*
X0153928Y0124906D03*
X0152354Y0124906D03*
X0150779Y0124906D03*
X0149204Y0124906D03*
X0147629Y0124906D03*
X0146054Y0124906D03*
X0144480Y0124906D03*
X0142905Y0124906D03*
X0141330Y0124906D03*
X0139755Y0124906D03*
X0139755Y0131993D03*
X0141330Y0131993D03*
X0142905Y0131993D03*
X0144480Y0131993D03*
X0146054Y0131993D03*
X0147629Y0131993D03*
X0149204Y0131993D03*
X0150779Y0131993D03*
X0152354Y0131993D03*
D12*
X0177602Y0139731D03*
X0181342Y0139731D03*
X0185082Y0139731D03*
X0185082Y0149968D03*
X0177602Y0149968D03*
X0329602Y0149968D03*
X0337082Y0149968D03*
X0337082Y0139731D03*
X0333342Y0139731D03*
X0329602Y0139731D03*
X0481602Y0139731D03*
X0485342Y0139731D03*
X0489082Y0139731D03*
X0489082Y0149968D03*
X0481602Y0149968D03*
X0481602Y0376731D03*
X0485342Y0376731D03*
X0489082Y0376731D03*
X0489082Y0386968D03*
X0481602Y0386968D03*
X0337082Y0386968D03*
X0329602Y0386968D03*
X0329602Y0376731D03*
X0333342Y0376731D03*
X0337082Y0376731D03*
X0185082Y0376731D03*
X0181342Y0376731D03*
X0177602Y0376731D03*
X0177602Y0386968D03*
X0185082Y0386968D03*
D13*
X0184688Y0392950D03*
X0184688Y0398950D03*
X0184688Y0404950D03*
X0177995Y0404950D03*
X0177995Y0398950D03*
X0177995Y0392950D03*
X0171688Y0398950D03*
X0171688Y0404950D03*
X0164995Y0404950D03*
X0164995Y0398950D03*
X0164995Y0376950D03*
X0164995Y0370950D03*
X0171688Y0370950D03*
X0171688Y0376950D03*
X0177995Y0370950D03*
X0184688Y0370950D03*
X0133188Y0375450D03*
X0133188Y0381450D03*
X0126495Y0381450D03*
X0126495Y0375450D03*
X0278495Y0375450D03*
X0278495Y0381450D03*
X0285188Y0381450D03*
X0285188Y0375450D03*
X0316995Y0376950D03*
X0316995Y0370950D03*
X0323688Y0370950D03*
X0323688Y0376950D03*
X0329995Y0370950D03*
X0336688Y0370950D03*
X0336688Y0392950D03*
X0336688Y0398950D03*
X0336688Y0404950D03*
X0329995Y0404950D03*
X0329995Y0398950D03*
X0329995Y0392950D03*
X0323688Y0398950D03*
X0323688Y0404950D03*
X0316995Y0404950D03*
X0316995Y0398950D03*
X0430495Y0381450D03*
X0430495Y0375450D03*
X0437188Y0375450D03*
X0437188Y0381450D03*
X0468995Y0376950D03*
X0468995Y0370950D03*
X0475688Y0370950D03*
X0475688Y0376950D03*
X0481995Y0370950D03*
X0488688Y0370950D03*
X0488688Y0392950D03*
X0488688Y0398950D03*
X0488688Y0404950D03*
X0481995Y0404950D03*
X0481995Y0398950D03*
X0481995Y0392950D03*
X0475688Y0398950D03*
X0475688Y0404950D03*
X0468995Y0404950D03*
X0468995Y0398950D03*
X0468995Y0167950D03*
X0468995Y0161950D03*
X0475688Y0161950D03*
X0475688Y0167950D03*
X0481995Y0167950D03*
X0481995Y0161950D03*
X0481995Y0155950D03*
X0488688Y0155950D03*
X0488688Y0161950D03*
X0488688Y0167950D03*
X0475688Y0139950D03*
X0475688Y0133950D03*
X0468995Y0133950D03*
X0468995Y0139950D03*
X0481995Y0133950D03*
X0488688Y0133950D03*
X0437188Y0138450D03*
X0437188Y0144450D03*
X0430495Y0144450D03*
X0430495Y0138450D03*
X0336688Y0133950D03*
X0329995Y0133950D03*
X0323688Y0133950D03*
X0323688Y0139950D03*
X0316995Y0139950D03*
X0316995Y0133950D03*
X0329995Y0155950D03*
X0329995Y0161950D03*
X0329995Y0167950D03*
X0323688Y0167950D03*
X0323688Y0161950D03*
X0316995Y0161950D03*
X0316995Y0167950D03*
X0336688Y0167950D03*
X0336688Y0161950D03*
X0336688Y0155950D03*
X0285188Y0144450D03*
X0285188Y0138450D03*
X0278495Y0138450D03*
X0278495Y0144450D03*
X0184688Y0133950D03*
X0177995Y0133950D03*
X0171688Y0133950D03*
X0171688Y0139950D03*
X0164995Y0139950D03*
X0164995Y0133950D03*
X0177995Y0155950D03*
X0177995Y0161950D03*
X0177995Y0167950D03*
X0171688Y0167950D03*
X0171688Y0161950D03*
X0164995Y0161950D03*
X0164995Y0167950D03*
X0184688Y0167950D03*
X0184688Y0161950D03*
X0184688Y0155950D03*
X0133188Y0144450D03*
X0133188Y0138450D03*
X0126495Y0138450D03*
X0126495Y0144450D03*
D14*
X0164602Y0146513D03*
X0172082Y0146513D03*
X0168342Y0154780D03*
X0316602Y0146513D03*
X0324082Y0146513D03*
X0320342Y0154780D03*
X0468602Y0146513D03*
X0472342Y0154780D03*
X0476082Y0146513D03*
X0476082Y0383513D03*
X0472342Y0391780D03*
X0468602Y0383513D03*
X0324082Y0383513D03*
X0316602Y0383513D03*
X0320342Y0391780D03*
X0172082Y0383513D03*
X0164602Y0383513D03*
X0168342Y0391780D03*
D15*
X0165842Y0336450D03*
X0155842Y0336450D03*
X0145842Y0336450D03*
X0135842Y0336450D03*
X0125842Y0336450D03*
X0115842Y0336450D03*
X0105842Y0336450D03*
X0095842Y0336450D03*
X0085842Y0336450D03*
X0175842Y0336450D03*
X0237842Y0336450D03*
X0247842Y0336450D03*
X0257842Y0336450D03*
X0267842Y0336450D03*
X0277842Y0336450D03*
X0287842Y0336450D03*
X0297842Y0336450D03*
X0307842Y0336450D03*
X0317842Y0336450D03*
X0327842Y0336450D03*
X0389842Y0336450D03*
X0399842Y0336450D03*
X0409842Y0336450D03*
X0419842Y0336450D03*
X0429842Y0336450D03*
X0439842Y0336450D03*
X0449842Y0336450D03*
X0459842Y0336450D03*
X0469842Y0336450D03*
X0479842Y0336450D03*
X0479842Y0099450D03*
X0469842Y0099450D03*
X0459842Y0099450D03*
X0449842Y0099450D03*
X0439842Y0099450D03*
X0429842Y0099450D03*
X0419842Y0099450D03*
X0409842Y0099450D03*
X0399842Y0099450D03*
X0389842Y0099450D03*
X0327842Y0099450D03*
X0317842Y0099450D03*
X0307842Y0099450D03*
X0297842Y0099450D03*
X0287842Y0099450D03*
X0277842Y0099450D03*
X0267842Y0099450D03*
X0257842Y0099450D03*
X0247842Y0099450D03*
X0237842Y0099450D03*
X0175842Y0099450D03*
X0165842Y0099450D03*
X0155842Y0099450D03*
X0145842Y0099450D03*
X0135842Y0099450D03*
X0125842Y0099450D03*
X0115842Y0099450D03*
X0105842Y0099450D03*
X0095842Y0099450D03*
X0085842Y0099450D03*
D16*
X0068342Y0106950D03*
X0193342Y0106950D03*
X0220342Y0106950D03*
X0345342Y0106950D03*
X0372342Y0106950D03*
X0497342Y0106950D03*
X0497342Y0316950D03*
X0497342Y0343950D03*
X0372342Y0343950D03*
X0345342Y0343950D03*
X0345342Y0316950D03*
X0372342Y0316950D03*
X0220342Y0316950D03*
X0193342Y0316950D03*
X0193342Y0343950D03*
X0220342Y0343950D03*
X0068342Y0343950D03*
X0068342Y0316950D03*
X0068342Y0553950D03*
X0193342Y0553950D03*
X0220342Y0553950D03*
X0345342Y0553950D03*
X0372342Y0553950D03*
X0497342Y0553950D03*
D17*
X0482842Y0574700D03*
X0362842Y0563450D03*
X0210842Y0563450D03*
X0082842Y0574700D03*
X0058842Y0563450D03*
X0202842Y0334450D03*
X0210842Y0326450D03*
X0354842Y0334450D03*
X0362842Y0326450D03*
X0506842Y0334450D03*
X0506842Y0097450D03*
X0354842Y0097450D03*
X0202842Y0097450D03*
X0058842Y0326450D03*
D18*
X0092456Y0414587D03*
X0094424Y0414587D03*
X0096393Y0414587D03*
X0098361Y0414587D03*
X0100330Y0414587D03*
X0102298Y0414587D03*
X0104267Y0414587D03*
X0106236Y0414587D03*
X0108204Y0414587D03*
X0110173Y0414587D03*
X0112141Y0414587D03*
X0114110Y0414587D03*
X0116078Y0414587D03*
X0118047Y0414587D03*
X0120015Y0414587D03*
X0121984Y0414587D03*
X0123952Y0414587D03*
X0125921Y0414587D03*
X0127889Y0414587D03*
X0129858Y0414587D03*
X0131826Y0414587D03*
X0133795Y0414587D03*
X0135763Y0414587D03*
X0137732Y0414587D03*
X0139700Y0414587D03*
X0141669Y0414587D03*
X0143637Y0414587D03*
X0145606Y0414587D03*
X0147574Y0414587D03*
X0149543Y0414587D03*
X0151511Y0414587D03*
X0153480Y0414587D03*
X0155448Y0414587D03*
X0157417Y0414587D03*
X0159385Y0414587D03*
X0161354Y0414587D03*
X0163322Y0414587D03*
X0165291Y0414587D03*
X0167259Y0414587D03*
X0169228Y0414587D03*
X0244456Y0414587D03*
X0246424Y0414587D03*
X0248393Y0414587D03*
X0250361Y0414587D03*
X0252330Y0414587D03*
X0254298Y0414587D03*
X0256267Y0414587D03*
X0258236Y0414587D03*
X0260204Y0414587D03*
X0262173Y0414587D03*
X0264141Y0414587D03*
X0266110Y0414587D03*
X0268078Y0414587D03*
X0270047Y0414587D03*
X0272015Y0414587D03*
X0273984Y0414587D03*
X0275952Y0414587D03*
X0277921Y0414587D03*
X0279889Y0414587D03*
X0281858Y0414587D03*
X0283826Y0414587D03*
X0285795Y0414587D03*
X0287763Y0414587D03*
X0289732Y0414587D03*
X0291700Y0414587D03*
X0293669Y0414587D03*
X0295637Y0414587D03*
X0297606Y0414587D03*
X0299574Y0414587D03*
X0301543Y0414587D03*
X0303511Y0414587D03*
X0305480Y0414587D03*
X0307448Y0414587D03*
X0309417Y0414587D03*
X0311385Y0414587D03*
X0313354Y0414587D03*
X0315322Y0414587D03*
X0317291Y0414587D03*
X0319259Y0414587D03*
X0321228Y0414587D03*
X0396456Y0414587D03*
X0398424Y0414587D03*
X0400393Y0414587D03*
X0402361Y0414587D03*
X0404330Y0414587D03*
X0406298Y0414587D03*
X0408267Y0414587D03*
X0410236Y0414587D03*
X0412204Y0414587D03*
X0414173Y0414587D03*
X0416141Y0414587D03*
X0418110Y0414587D03*
X0420078Y0414587D03*
X0422047Y0414587D03*
X0424015Y0414587D03*
X0425984Y0414587D03*
X0427952Y0414587D03*
X0429921Y0414587D03*
X0431889Y0414587D03*
X0433858Y0414587D03*
X0435826Y0414587D03*
X0437795Y0414587D03*
X0439763Y0414587D03*
X0441732Y0414587D03*
X0443700Y0414587D03*
X0445669Y0414587D03*
X0447637Y0414587D03*
X0449606Y0414587D03*
X0451574Y0414587D03*
X0453543Y0414587D03*
X0455511Y0414587D03*
X0457480Y0414587D03*
X0459448Y0414587D03*
X0461417Y0414587D03*
X0463385Y0414587D03*
X0465354Y0414587D03*
X0467322Y0414587D03*
X0469291Y0414587D03*
X0471259Y0414587D03*
X0473228Y0414587D03*
X0473228Y0177587D03*
X0471259Y0177587D03*
X0469291Y0177587D03*
X0467322Y0177587D03*
X0465354Y0177587D03*
X0463385Y0177587D03*
X0461417Y0177587D03*
X0459448Y0177587D03*
X0457480Y0177587D03*
X0455511Y0177587D03*
X0453543Y0177587D03*
X0451574Y0177587D03*
X0449606Y0177587D03*
X0447637Y0177587D03*
X0445669Y0177587D03*
X0443700Y0177587D03*
X0441732Y0177587D03*
X0439763Y0177587D03*
X0437795Y0177587D03*
X0435826Y0177587D03*
X0433858Y0177587D03*
X0431889Y0177587D03*
X0429921Y0177587D03*
X0427952Y0177587D03*
X0425984Y0177587D03*
X0424015Y0177587D03*
X0422047Y0177587D03*
X0420078Y0177587D03*
X0418110Y0177587D03*
X0416141Y0177587D03*
X0414173Y0177587D03*
X0412204Y0177587D03*
X0410236Y0177587D03*
X0408267Y0177587D03*
X0406298Y0177587D03*
X0404330Y0177587D03*
X0402361Y0177587D03*
X0400393Y0177587D03*
X0398424Y0177587D03*
X0396456Y0177587D03*
X0321228Y0177587D03*
X0319259Y0177587D03*
X0317291Y0177587D03*
X0315322Y0177587D03*
X0313354Y0177587D03*
X0311385Y0177587D03*
X0309417Y0177587D03*
X0307448Y0177587D03*
X0305480Y0177587D03*
X0303511Y0177587D03*
X0301543Y0177587D03*
X0299574Y0177587D03*
X0297606Y0177587D03*
X0295637Y0177587D03*
X0293669Y0177587D03*
X0291700Y0177587D03*
X0289732Y0177587D03*
X0287763Y0177587D03*
X0285795Y0177587D03*
X0283826Y0177587D03*
X0281858Y0177587D03*
X0279889Y0177587D03*
X0277921Y0177587D03*
X0275952Y0177587D03*
X0273984Y0177587D03*
X0272015Y0177587D03*
X0270047Y0177587D03*
X0268078Y0177587D03*
X0266110Y0177587D03*
X0264141Y0177587D03*
X0262173Y0177587D03*
X0260204Y0177587D03*
X0258236Y0177587D03*
X0256267Y0177587D03*
X0254298Y0177587D03*
X0252330Y0177587D03*
X0250361Y0177587D03*
X0248393Y0177587D03*
X0246424Y0177587D03*
X0244456Y0177587D03*
X0169228Y0177587D03*
X0167259Y0177587D03*
X0165291Y0177587D03*
X0163322Y0177587D03*
X0161354Y0177587D03*
X0159385Y0177587D03*
X0157417Y0177587D03*
X0155448Y0177587D03*
X0153480Y0177587D03*
X0151511Y0177587D03*
X0149543Y0177587D03*
X0147574Y0177587D03*
X0145606Y0177587D03*
X0143637Y0177587D03*
X0141669Y0177587D03*
X0139700Y0177587D03*
X0137732Y0177587D03*
X0135763Y0177587D03*
X0133795Y0177587D03*
X0131826Y0177587D03*
X0129858Y0177587D03*
X0127889Y0177587D03*
X0125921Y0177587D03*
X0123952Y0177587D03*
X0121984Y0177587D03*
X0120015Y0177587D03*
X0118047Y0177587D03*
X0116078Y0177587D03*
X0114110Y0177587D03*
X0112141Y0177587D03*
X0110173Y0177587D03*
X0108204Y0177587D03*
X0106236Y0177587D03*
X0104267Y0177587D03*
X0102298Y0177587D03*
X0100330Y0177587D03*
X0098361Y0177587D03*
X0096393Y0177587D03*
X0094424Y0177587D03*
X0092456Y0177587D03*
D19*
X0085960Y0189989D03*
X0175724Y0189989D03*
X0237960Y0189989D03*
X0327724Y0189989D03*
X0389960Y0189989D03*
X0479724Y0189989D03*
X0479724Y0426989D03*
X0389960Y0426989D03*
X0327724Y0426989D03*
X0237960Y0426989D03*
X0175724Y0426989D03*
X0085960Y0426989D03*
D20*
X0082495Y0400544D03*
X0082495Y0396213D03*
X0082495Y0391883D03*
X0082495Y0387552D03*
X0082495Y0383221D03*
X0082495Y0378891D03*
X0082495Y0374560D03*
X0082495Y0370229D03*
X0234495Y0370229D03*
X0234495Y0374560D03*
X0234495Y0378891D03*
X0234495Y0383221D03*
X0234495Y0387552D03*
X0234495Y0391883D03*
X0234495Y0396213D03*
X0234495Y0400544D03*
X0386495Y0400544D03*
X0386495Y0396213D03*
X0386495Y0391883D03*
X0386495Y0387552D03*
X0386495Y0383221D03*
X0386495Y0378891D03*
X0386495Y0374560D03*
X0386495Y0370229D03*
X0386495Y0163544D03*
X0386495Y0159213D03*
X0386495Y0154883D03*
X0386495Y0150552D03*
X0386495Y0146221D03*
X0386495Y0141891D03*
X0386495Y0137560D03*
X0386495Y0133229D03*
X0234495Y0133229D03*
X0234495Y0137560D03*
X0234495Y0141891D03*
X0234495Y0146221D03*
X0234495Y0150552D03*
X0234495Y0154883D03*
X0234495Y0159213D03*
X0234495Y0163544D03*
X0082495Y0163544D03*
X0082495Y0159213D03*
X0082495Y0154883D03*
X0082495Y0150552D03*
X0082495Y0146221D03*
X0082495Y0141891D03*
X0082495Y0137560D03*
X0082495Y0133229D03*
D21*
X0093047Y0126143D03*
X0245047Y0126143D03*
X0397047Y0126143D03*
X0397047Y0363143D03*
X0245047Y0363143D03*
X0093047Y0363143D03*
D22*
X0098047Y0363143D03*
X0250047Y0363143D03*
X0402047Y0363143D03*
X0402047Y0126143D03*
X0250047Y0126143D03*
X0098047Y0126143D03*
D23*
X0108322Y0126143D03*
X0106078Y0168170D03*
X0258078Y0168170D03*
X0260322Y0126143D03*
X0412322Y0126143D03*
X0410078Y0168170D03*
X0412322Y0363143D03*
X0410078Y0405170D03*
X0260322Y0363143D03*
X0258078Y0405170D03*
X0106078Y0405170D03*
X0108322Y0363143D03*
D24*
X0093539Y0405170D03*
X0245539Y0405170D03*
X0397539Y0405170D03*
X0397539Y0168170D03*
X0245539Y0168170D03*
X0093539Y0168170D03*
D25*
X0110980Y0155650D03*
X0110980Y0139154D03*
X0262980Y0139154D03*
X0262980Y0155650D03*
X0414980Y0155650D03*
X0414980Y0139154D03*
X0414980Y0376154D03*
X0414980Y0392650D03*
X0262980Y0392650D03*
X0262980Y0376154D03*
X0110980Y0376154D03*
X0110980Y0392650D03*
D26*
X0072215Y0421624D02*
X0069469Y0421624D01*
X0069469Y0424370D01*
X0072215Y0424370D01*
X0072215Y0421624D01*
X0072215Y0423514D02*
X0069469Y0423514D01*
X0069469Y0428529D02*
X0072215Y0428529D01*
X0069469Y0428529D02*
X0069469Y0431275D01*
X0072215Y0431275D01*
X0072215Y0428529D01*
X0072215Y0430419D02*
X0069469Y0430419D01*
X0221469Y0428529D02*
X0224215Y0428529D01*
X0221469Y0428529D02*
X0221469Y0431275D01*
X0224215Y0431275D01*
X0224215Y0428529D01*
X0224215Y0430419D02*
X0221469Y0430419D01*
X0221469Y0421624D02*
X0224215Y0421624D01*
X0221469Y0421624D02*
X0221469Y0424370D01*
X0224215Y0424370D01*
X0224215Y0421624D01*
X0224215Y0423514D02*
X0221469Y0423514D01*
X0373469Y0421624D02*
X0376215Y0421624D01*
X0373469Y0421624D02*
X0373469Y0424370D01*
X0376215Y0424370D01*
X0376215Y0421624D01*
X0376215Y0423514D02*
X0373469Y0423514D01*
X0373469Y0428529D02*
X0376215Y0428529D01*
X0373469Y0428529D02*
X0373469Y0431275D01*
X0376215Y0431275D01*
X0376215Y0428529D01*
X0376215Y0430419D02*
X0373469Y0430419D01*
X0373469Y0191529D02*
X0376215Y0191529D01*
X0373469Y0191529D02*
X0373469Y0194275D01*
X0376215Y0194275D01*
X0376215Y0191529D01*
X0376215Y0193419D02*
X0373469Y0193419D01*
X0373469Y0184624D02*
X0376215Y0184624D01*
X0373469Y0184624D02*
X0373469Y0187370D01*
X0376215Y0187370D01*
X0376215Y0184624D01*
X0376215Y0186514D02*
X0373469Y0186514D01*
X0224215Y0184624D02*
X0221469Y0184624D01*
X0221469Y0187370D01*
X0224215Y0187370D01*
X0224215Y0184624D01*
X0224215Y0186514D02*
X0221469Y0186514D01*
X0221469Y0191529D02*
X0224215Y0191529D01*
X0221469Y0191529D02*
X0221469Y0194275D01*
X0224215Y0194275D01*
X0224215Y0191529D01*
X0224215Y0193419D02*
X0221469Y0193419D01*
X0072215Y0191529D02*
X0069469Y0191529D01*
X0069469Y0194275D01*
X0072215Y0194275D01*
X0072215Y0191529D01*
X0072215Y0193419D02*
X0069469Y0193419D01*
X0069469Y0184624D02*
X0072215Y0184624D01*
X0069469Y0184624D02*
X0069469Y0187370D01*
X0072215Y0187370D01*
X0072215Y0184624D01*
X0072215Y0186514D02*
X0069469Y0186514D01*
D27*
X0075842Y0186103D03*
X0075842Y0192796D03*
X0227842Y0192796D03*
X0227842Y0186103D03*
X0379842Y0186103D03*
X0379842Y0192796D03*
X0379842Y0423103D03*
X0379842Y0429796D03*
X0227842Y0429796D03*
X0227842Y0423103D03*
X0075842Y0423103D03*
X0075842Y0429796D03*
D28*
X0075842Y0410450D03*
X0071842Y0410450D03*
X0223842Y0410450D03*
X0227842Y0410450D03*
X0375842Y0410450D03*
X0379842Y0410450D03*
X0379842Y0173450D03*
X0375842Y0173450D03*
X0227842Y0173450D03*
X0223842Y0173450D03*
X0075842Y0173450D03*
X0071842Y0173450D03*
D29*
X0073092Y0173214D02*
X0074592Y0173214D01*
X0074592Y0172950D02*
X0073092Y0172950D01*
X0073092Y0173950D01*
X0074592Y0173950D01*
X0074592Y0172950D01*
X0074592Y0173713D02*
X0073092Y0173713D01*
X0225092Y0173713D02*
X0226592Y0173713D01*
X0226592Y0173950D02*
X0226592Y0172950D01*
X0225092Y0172950D01*
X0225092Y0173950D01*
X0226592Y0173950D01*
X0226592Y0173214D02*
X0225092Y0173214D01*
X0377092Y0173214D02*
X0378592Y0173214D01*
X0378592Y0172950D02*
X0377092Y0172950D01*
X0377092Y0173950D01*
X0378592Y0173950D01*
X0378592Y0172950D01*
X0378592Y0173713D02*
X0377092Y0173713D01*
X0377092Y0409950D02*
X0377092Y0410950D01*
X0378592Y0410950D01*
X0378592Y0409950D01*
X0377092Y0409950D01*
X0377092Y0410007D02*
X0378592Y0410007D01*
X0378592Y0410506D02*
X0377092Y0410506D01*
X0226592Y0410506D02*
X0225092Y0410506D01*
X0225092Y0410950D02*
X0225092Y0409950D01*
X0226592Y0409950D01*
X0226592Y0410950D01*
X0225092Y0410950D01*
X0225092Y0410007D02*
X0226592Y0410007D01*
X0074592Y0410007D02*
X0073092Y0410007D01*
X0073092Y0409950D02*
X0073092Y0410950D01*
X0074592Y0410950D01*
X0074592Y0409950D01*
X0073092Y0409950D01*
X0073092Y0410506D02*
X0074592Y0410506D01*
D30*
X0066688Y0359757D03*
X0194247Y0359757D03*
X0218688Y0359757D03*
X0194247Y0301103D03*
X0346247Y0301103D03*
X0346247Y0359757D03*
X0370688Y0359757D03*
X0498247Y0359757D03*
X0498247Y0301103D03*
X0498247Y0122757D03*
X0370688Y0122757D03*
X0346247Y0122757D03*
X0218688Y0122757D03*
X0194247Y0122757D03*
X0066688Y0122757D03*
X0194247Y0538103D03*
X0346247Y0538103D03*
X0498247Y0538103D03*
D31*
X0079277Y0086200D02*
X0079279Y0086319D01*
X0079285Y0086438D01*
X0079295Y0086557D01*
X0079309Y0086675D01*
X0079327Y0086793D01*
X0079348Y0086910D01*
X0079374Y0087026D01*
X0079404Y0087142D01*
X0079437Y0087256D01*
X0079474Y0087369D01*
X0079515Y0087481D01*
X0079560Y0087592D01*
X0079608Y0087701D01*
X0079660Y0087808D01*
X0079716Y0087913D01*
X0079775Y0088017D01*
X0079837Y0088118D01*
X0079903Y0088218D01*
X0079972Y0088315D01*
X0080044Y0088409D01*
X0080120Y0088502D01*
X0080198Y0088591D01*
X0080279Y0088678D01*
X0080364Y0088763D01*
X0080451Y0088844D01*
X0080540Y0088922D01*
X0080633Y0088998D01*
X0080727Y0089070D01*
X0080824Y0089139D01*
X0080924Y0089205D01*
X0081025Y0089267D01*
X0081129Y0089326D01*
X0081234Y0089382D01*
X0081341Y0089434D01*
X0081450Y0089482D01*
X0081561Y0089527D01*
X0081673Y0089568D01*
X0081786Y0089605D01*
X0081900Y0089638D01*
X0082016Y0089668D01*
X0082132Y0089694D01*
X0082249Y0089715D01*
X0082367Y0089733D01*
X0082485Y0089747D01*
X0082604Y0089757D01*
X0082723Y0089763D01*
X0082842Y0089765D01*
X0082961Y0089763D01*
X0083080Y0089757D01*
X0083199Y0089747D01*
X0083317Y0089733D01*
X0083435Y0089715D01*
X0083552Y0089694D01*
X0083668Y0089668D01*
X0083784Y0089638D01*
X0083898Y0089605D01*
X0084011Y0089568D01*
X0084123Y0089527D01*
X0084234Y0089482D01*
X0084343Y0089434D01*
X0084450Y0089382D01*
X0084555Y0089326D01*
X0084659Y0089267D01*
X0084760Y0089205D01*
X0084860Y0089139D01*
X0084957Y0089070D01*
X0085051Y0088998D01*
X0085144Y0088922D01*
X0085233Y0088844D01*
X0085320Y0088763D01*
X0085405Y0088678D01*
X0085486Y0088591D01*
X0085564Y0088502D01*
X0085640Y0088409D01*
X0085712Y0088315D01*
X0085781Y0088218D01*
X0085847Y0088118D01*
X0085909Y0088017D01*
X0085968Y0087913D01*
X0086024Y0087808D01*
X0086076Y0087701D01*
X0086124Y0087592D01*
X0086169Y0087481D01*
X0086210Y0087369D01*
X0086247Y0087256D01*
X0086280Y0087142D01*
X0086310Y0087026D01*
X0086336Y0086910D01*
X0086357Y0086793D01*
X0086375Y0086675D01*
X0086389Y0086557D01*
X0086399Y0086438D01*
X0086405Y0086319D01*
X0086407Y0086200D01*
X0086405Y0086081D01*
X0086399Y0085962D01*
X0086389Y0085843D01*
X0086375Y0085725D01*
X0086357Y0085607D01*
X0086336Y0085490D01*
X0086310Y0085374D01*
X0086280Y0085258D01*
X0086247Y0085144D01*
X0086210Y0085031D01*
X0086169Y0084919D01*
X0086124Y0084808D01*
X0086076Y0084699D01*
X0086024Y0084592D01*
X0085968Y0084487D01*
X0085909Y0084383D01*
X0085847Y0084282D01*
X0085781Y0084182D01*
X0085712Y0084085D01*
X0085640Y0083991D01*
X0085564Y0083898D01*
X0085486Y0083809D01*
X0085405Y0083722D01*
X0085320Y0083637D01*
X0085233Y0083556D01*
X0085144Y0083478D01*
X0085051Y0083402D01*
X0084957Y0083330D01*
X0084860Y0083261D01*
X0084760Y0083195D01*
X0084659Y0083133D01*
X0084555Y0083074D01*
X0084450Y0083018D01*
X0084343Y0082966D01*
X0084234Y0082918D01*
X0084123Y0082873D01*
X0084011Y0082832D01*
X0083898Y0082795D01*
X0083784Y0082762D01*
X0083668Y0082732D01*
X0083552Y0082706D01*
X0083435Y0082685D01*
X0083317Y0082667D01*
X0083199Y0082653D01*
X0083080Y0082643D01*
X0082961Y0082637D01*
X0082842Y0082635D01*
X0082723Y0082637D01*
X0082604Y0082643D01*
X0082485Y0082653D01*
X0082367Y0082667D01*
X0082249Y0082685D01*
X0082132Y0082706D01*
X0082016Y0082732D01*
X0081900Y0082762D01*
X0081786Y0082795D01*
X0081673Y0082832D01*
X0081561Y0082873D01*
X0081450Y0082918D01*
X0081341Y0082966D01*
X0081234Y0083018D01*
X0081129Y0083074D01*
X0081025Y0083133D01*
X0080924Y0083195D01*
X0080824Y0083261D01*
X0080727Y0083330D01*
X0080633Y0083402D01*
X0080540Y0083478D01*
X0080451Y0083556D01*
X0080364Y0083637D01*
X0080279Y0083722D01*
X0080198Y0083809D01*
X0080120Y0083898D01*
X0080044Y0083991D01*
X0079972Y0084085D01*
X0079903Y0084182D01*
X0079837Y0084282D01*
X0079775Y0084383D01*
X0079716Y0084487D01*
X0079660Y0084592D01*
X0079608Y0084699D01*
X0079560Y0084808D01*
X0079515Y0084919D01*
X0079474Y0085031D01*
X0079437Y0085144D01*
X0079404Y0085258D01*
X0079374Y0085374D01*
X0079348Y0085490D01*
X0079327Y0085607D01*
X0079309Y0085725D01*
X0079295Y0085843D01*
X0079285Y0085962D01*
X0079279Y0086081D01*
X0079277Y0086200D01*
D32*
X0082842Y0086200D03*
M02*
