%
M48
M72
T01C0.0150
T02C0.0400
T03C0.0500
T04C0.1300
%
T01
X8084Y11445
X8834Y12195
X8834Y13745
X9084Y14145
X8784Y14495
X8784Y15045
X9834Y15045
X9704Y16255
X8884Y15895
X8334Y17045
X7084Y17945
X6084Y17445
X6084Y19445
X9434Y18395
X11234Y18245
X12134Y18245
X11528Y17219
X12084Y16445
X12884Y15645
X13184Y15395
X12884Y15045
X13884Y14445
X13884Y13845
X14684Y13745
X14983Y14295
X14698Y14945
X14683Y15345
X15334Y15195
X15084Y16445
X14284Y16945
X13884Y16945
X13584Y16445
X13884Y16195
X13084Y16945
X13134Y18495
X12484Y19145
X11784Y19145
X15034Y18495
X16334Y19045
X15934Y17195
X17784Y17245
X19084Y16445
X20084Y17445
X21284Y17445
X22284Y17945
X23534Y17045
X24084Y15895
X23984Y15045
X23984Y14495
X24284Y14145
X24034Y13745
X23034Y14595
X22284Y14445
X21284Y15445
X20084Y15445
X19084Y14445
X18934Y13995
X18484Y12895
X18084Y11445
X16909Y12920
X16384Y12945
X14843Y12045
X14634Y11645
X15084Y10595
X12884Y12745
X12684Y13145
X7834Y14595
X7084Y14445
X6084Y15445
X6084Y13445
X19084Y18445
X20084Y19445
X21284Y19445
X24634Y18395
X26434Y18245
X26728Y17219
X27334Y18245
X28334Y18495
X27684Y19145
X26984Y19145
X28284Y16945
X28784Y16445
X29084Y16195
X29084Y16945
X29484Y16945
X30284Y16445
X29883Y15345
X29898Y14945
X30534Y15195
X30183Y14295
X29884Y13745
X29084Y13845
X29084Y14445
X28084Y15045
X28384Y15395
X28084Y15645
X27284Y16445
X24904Y16255
X25034Y15045
X24034Y12195
X23284Y11445
X21284Y13445
X20084Y13445
X27884Y13145
X28084Y12745
X29834Y11645
X30043Y12045
X30284Y10595
X31584Y12945
X32109Y12920
X33284Y11445
X33684Y12895
X34134Y13995
X34284Y14445
X35284Y15445
X36484Y15445
X37484Y14445
X38234Y14595
X39184Y14495
X39484Y14145
X39234Y13745
X39184Y15045
X39284Y15895
X40104Y16255
X40234Y15045
X38734Y17045
X37484Y17945
X36484Y17445
X35284Y17445
X34284Y18445
X35284Y19445
X36484Y19445
X39834Y18395
X41634Y18245
X42534Y18245
X41928Y17219
X42484Y16445
X43484Y16945
X43984Y16445
X44284Y16195
X44284Y16945
X44684Y16945
X45484Y16445
X45083Y15345
X45098Y14945
X45383Y14295
X45084Y13745
X44284Y13845
X44284Y14445
X43284Y15045
X43584Y15395
X43284Y15645
X45734Y15195
X46784Y12945
X47309Y12920
X48484Y11445
X48884Y12895
X49334Y13995
X49484Y14445
X50484Y13445
X50484Y15445
X49484Y16445
X50484Y17445
X49484Y18445
X50484Y19445
X48184Y17245
X46734Y19045
X45434Y18495
X46334Y17195
X43534Y18495
X42884Y19145
X42184Y19145
X36484Y13445
X35284Y13445
X34284Y16445
X32984Y17245
X31534Y19045
X31134Y17195
X30234Y18495
X38484Y11445
X39234Y12195
X43084Y13145
X43284Y12745
X45034Y11645
X45243Y12045
X45484Y10595
X45484Y34295
X45034Y35345
X45243Y35745
X45084Y37445
X45383Y37995
X45098Y38645
X45083Y39045
X44284Y39895
X43984Y40145
X44284Y40645
X44684Y40645
X45484Y40145
X46334Y40895
X45434Y42195
X46734Y42745
X48184Y40945
X49484Y40145
X50484Y41145
X49484Y42145
X50484Y43145
X50484Y39145
X49484Y38145
X49334Y37695
X48884Y36595
X48484Y35145
X47309Y36620
X46784Y36645
X45734Y38895
X44284Y38145
X44284Y37545
X43084Y36845
X43284Y36445
X43284Y38745
X43584Y39095
X43284Y39345
X42484Y40145
X41928Y40919
X41634Y41945
X42534Y41945
X42184Y42845
X42884Y42845
X43534Y42195
X43484Y40645
X40234Y38745
X40104Y39955
X39284Y39595
X39184Y38745
X39184Y38195
X39484Y37845
X39234Y37445
X38234Y38295
X37484Y38145
X36484Y39145
X35284Y39145
X34284Y40145
X35284Y41145
X36484Y41145
X37484Y41645
X38734Y40745
X39834Y42095
X36484Y43145
X35284Y43145
X34284Y42145
X32984Y40945
X31134Y40895
X30284Y40145
X29484Y40645
X29084Y40645
X28784Y40145
X29084Y39895
X29883Y39045
X29898Y38645
X30534Y38895
X30183Y37995
X29884Y37445
X29084Y37545
X29084Y38145
X28084Y38745
X28384Y39095
X28084Y39345
X27284Y40145
X26728Y40919
X26434Y41945
X26984Y42845
X27684Y42845
X28334Y42195
X27334Y41945
X28284Y40645
X30234Y42195
X31534Y42745
X34284Y38145
X34134Y37695
X33684Y36595
X33284Y35145
X32109Y36620
X31584Y36645
X30043Y35745
X29834Y35345
X30284Y34295
X28084Y36445
X27884Y36845
X25034Y38745
X24904Y39955
X24084Y39595
X23984Y38745
X23984Y38195
X24284Y37845
X24034Y37445
X23034Y38295
X22284Y38145
X21284Y39145
X20084Y39145
X19084Y40145
X20084Y41145
X21284Y41145
X22284Y41645
X23534Y40745
X24634Y42095
X21284Y43145
X20084Y43145
X19084Y42145
X17784Y40945
X15934Y40895
X15084Y40145
X14284Y40645
X13884Y40645
X13584Y40145
X13884Y39895
X13184Y39095
X12884Y39345
X12884Y38745
X13884Y38145
X13884Y37545
X14684Y37445
X14983Y37995
X14698Y38645
X14683Y39045
X15334Y38895
X13084Y40645
X12084Y40145
X11528Y40919
X11234Y41945
X12134Y41945
X11784Y42845
X12484Y42845
X13134Y42195
X15034Y42195
X16334Y42745
X19084Y38145
X18934Y37695
X18484Y36595
X18084Y35145
X16909Y36620
X16384Y36645
X14843Y35745
X14634Y35345
X15084Y34295
X12884Y36445
X12684Y36845
X9834Y38745
X8784Y38745
X8784Y38195
X9084Y37845
X8834Y37445
X7834Y38295
X7084Y38145
X6084Y39145
X6084Y41145
X7084Y41645
X8334Y40745
X8884Y39595
X9704Y39955
X9434Y42095
X6084Y43145
X6084Y37145
X8084Y35145
X8834Y35895
X20084Y37145
X21284Y37145
X23284Y35145
X24034Y35895
X35284Y37145
X36484Y37145
X38484Y35145
X39234Y35895
X50484Y37145
T02
X8584Y9945
X9584Y9945
X10584Y9945
X11584Y9945
X12584Y9945
X13584Y9945
X14584Y9945
X15584Y9945
X16584Y9945
X17584Y9945
X23784Y9945
X24784Y9945
X25784Y9945
X26784Y9945
X27784Y9945
X28784Y9945
X29784Y9945
X30784Y9945
X31784Y9945
X32784Y9945
X38984Y9945
X39984Y9945
X40984Y9945
X41984Y9945
X42984Y9945
X43984Y9945
X44984Y9945
X45984Y9945
X46984Y9945
X47984Y9945
X47984Y33645
X46984Y33645
X45984Y33645
X44984Y33645
X43984Y33645
X42984Y33645
X41984Y33645
X40984Y33645
X39984Y33645
X38984Y33645
X32784Y33645
X31784Y33645
X30784Y33645
X29784Y33645
X28784Y33645
X27784Y33645
X26784Y33645
X25784Y33645
X24784Y33645
X23784Y33645
X17584Y33645
X16584Y33645
X15584Y33645
X14584Y33645
X13584Y33645
X12584Y33645
X11584Y33645
X10584Y33645
X9584Y33645
X8584Y33645
T03
X6669Y35976
X19425Y35976
X21869Y35976
X19425Y30110
X34625Y30110
X34625Y35976
X37069Y35976
X49825Y35976
X49825Y30110
X49825Y12276
X37069Y12276
X34625Y12276
X21869Y12276
X19425Y12276
X6669Y12276
X19425Y53810
X34625Y53810
X49825Y53810
T04
X49734Y55395
X37234Y55395
X34534Y55395
X22034Y55395
X19334Y55395
X6834Y55395
X6834Y34395
X6834Y31695
X19334Y31695
X22034Y31695
X22034Y34395
X19334Y34395
X34534Y34395
X34534Y31695
X37234Y31695
X37234Y34395
X49734Y34395
X49734Y31695
X49734Y10695
X37234Y10695
X34534Y10695
X22034Y10695
X19334Y10695
X6834Y10695
M30
