G75*
%MOIN*%
%OFA0B0*%
%FSLAX25Y25*%
%IPPOS*%
%LPD*%
%AMOC8*
5,1,8,0,0,1.08239X$1,22.5*
%
%ADD10R,0.00787X0.03150*%
%ADD11R,0.00787X0.03543*%
%ADD12R,0.02165X0.04724*%
%ADD13R,0.04331X0.03937*%
%ADD14R,0.03150X0.03543*%
%ADD15R,0.01181X0.04724*%
%ADD16R,0.07087X0.07874*%
%ADD17R,0.03937X0.01969*%
%ADD18R,0.03071X0.02835*%
%ADD19R,0.04252X0.04134*%
%ADD20R,0.04724X0.04134*%
%ADD21R,0.09409X0.04134*%
%ADD22R,0.02165X0.11457*%
%ADD23C,0.01181*%
%ADD24R,0.03937X0.04331*%
D10*
X0139755Y0124906D03*
X0141330Y0124906D03*
X0142905Y0124906D03*
X0144480Y0124906D03*
X0146054Y0124906D03*
X0147629Y0124906D03*
X0149204Y0124906D03*
X0150779Y0124906D03*
X0152354Y0124906D03*
X0153928Y0124906D03*
X0152354Y0131993D03*
X0150779Y0131993D03*
X0149204Y0131993D03*
X0147629Y0131993D03*
X0146054Y0131993D03*
X0144480Y0131993D03*
X0142905Y0131993D03*
X0141330Y0131993D03*
X0139755Y0131993D03*
X0291755Y0131993D03*
X0293330Y0131993D03*
X0294905Y0131993D03*
X0296480Y0131993D03*
X0298054Y0131993D03*
X0299629Y0131993D03*
X0301204Y0131993D03*
X0302779Y0131993D03*
X0304354Y0131993D03*
X0304354Y0124906D03*
X0305928Y0124906D03*
X0302779Y0124906D03*
X0301204Y0124906D03*
X0299629Y0124906D03*
X0298054Y0124906D03*
X0296480Y0124906D03*
X0294905Y0124906D03*
X0293330Y0124906D03*
X0291755Y0124906D03*
X0443755Y0124906D03*
X0445330Y0124906D03*
X0446905Y0124906D03*
X0448480Y0124906D03*
X0450054Y0124906D03*
X0451629Y0124906D03*
X0453204Y0124906D03*
X0454779Y0124906D03*
X0456354Y0124906D03*
X0457928Y0124906D03*
X0456354Y0131993D03*
X0454779Y0131993D03*
X0453204Y0131993D03*
X0451629Y0131993D03*
X0450054Y0131993D03*
X0448480Y0131993D03*
X0446905Y0131993D03*
X0445330Y0131993D03*
X0443755Y0131993D03*
X0443755Y0361906D03*
X0445330Y0361906D03*
X0446905Y0361906D03*
X0448480Y0361906D03*
X0450054Y0361906D03*
X0451629Y0361906D03*
X0453204Y0361906D03*
X0454779Y0361906D03*
X0456354Y0361906D03*
X0457928Y0361906D03*
X0456354Y0368993D03*
X0454779Y0368993D03*
X0453204Y0368993D03*
X0451629Y0368993D03*
X0450054Y0368993D03*
X0448480Y0368993D03*
X0446905Y0368993D03*
X0445330Y0368993D03*
X0443755Y0368993D03*
X0305928Y0361906D03*
X0304354Y0361906D03*
X0302779Y0361906D03*
X0301204Y0361906D03*
X0299629Y0361906D03*
X0298054Y0361906D03*
X0296480Y0361906D03*
X0294905Y0361906D03*
X0293330Y0361906D03*
X0291755Y0361906D03*
X0291755Y0368993D03*
X0293330Y0368993D03*
X0294905Y0368993D03*
X0296480Y0368993D03*
X0298054Y0368993D03*
X0299629Y0368993D03*
X0301204Y0368993D03*
X0302779Y0368993D03*
X0304354Y0368993D03*
X0153928Y0361906D03*
X0152354Y0361906D03*
X0150779Y0361906D03*
X0149204Y0361906D03*
X0147629Y0361906D03*
X0146054Y0361906D03*
X0144480Y0361906D03*
X0142905Y0361906D03*
X0141330Y0361906D03*
X0139755Y0361906D03*
X0139755Y0368993D03*
X0141330Y0368993D03*
X0142905Y0368993D03*
X0144480Y0368993D03*
X0146054Y0368993D03*
X0147629Y0368993D03*
X0149204Y0368993D03*
X0150779Y0368993D03*
X0152354Y0368993D03*
D11*
X0153928Y0368796D03*
X0305928Y0368796D03*
X0457928Y0368796D03*
X0457928Y0131796D03*
X0305928Y0131796D03*
X0153928Y0131796D03*
D12*
X0177602Y0139731D03*
X0181342Y0139731D03*
X0185082Y0139731D03*
X0185082Y0149968D03*
X0177602Y0149968D03*
X0329602Y0149968D03*
X0337082Y0149968D03*
X0337082Y0139731D03*
X0333342Y0139731D03*
X0329602Y0139731D03*
X0481602Y0139731D03*
X0485342Y0139731D03*
X0489082Y0139731D03*
X0489082Y0149968D03*
X0481602Y0149968D03*
X0481602Y0376731D03*
X0485342Y0376731D03*
X0489082Y0376731D03*
X0489082Y0386968D03*
X0481602Y0386968D03*
X0337082Y0386968D03*
X0329602Y0386968D03*
X0329602Y0376731D03*
X0333342Y0376731D03*
X0337082Y0376731D03*
X0185082Y0376731D03*
X0181342Y0376731D03*
X0177602Y0376731D03*
X0177602Y0386968D03*
X0185082Y0386968D03*
D13*
X0184688Y0392950D03*
X0184688Y0398950D03*
X0184688Y0404950D03*
X0177995Y0404950D03*
X0177995Y0398950D03*
X0177995Y0392950D03*
X0171688Y0398950D03*
X0171688Y0404950D03*
X0164995Y0404950D03*
X0164995Y0398950D03*
X0164995Y0376950D03*
X0164995Y0370950D03*
X0171688Y0370950D03*
X0171688Y0376950D03*
X0177995Y0370950D03*
X0184688Y0370950D03*
X0133188Y0375450D03*
X0133188Y0381450D03*
X0126495Y0381450D03*
X0126495Y0375450D03*
X0278495Y0375450D03*
X0278495Y0381450D03*
X0285188Y0381450D03*
X0285188Y0375450D03*
X0316995Y0376950D03*
X0316995Y0370950D03*
X0323688Y0370950D03*
X0323688Y0376950D03*
X0329995Y0370950D03*
X0336688Y0370950D03*
X0336688Y0392950D03*
X0336688Y0398950D03*
X0336688Y0404950D03*
X0329995Y0404950D03*
X0329995Y0398950D03*
X0329995Y0392950D03*
X0323688Y0398950D03*
X0323688Y0404950D03*
X0316995Y0404950D03*
X0316995Y0398950D03*
X0430495Y0381450D03*
X0430495Y0375450D03*
X0437188Y0375450D03*
X0437188Y0381450D03*
X0468995Y0376950D03*
X0468995Y0370950D03*
X0475688Y0370950D03*
X0475688Y0376950D03*
X0481995Y0370950D03*
X0488688Y0370950D03*
X0488688Y0392950D03*
X0488688Y0398950D03*
X0488688Y0404950D03*
X0481995Y0404950D03*
X0481995Y0398950D03*
X0481995Y0392950D03*
X0475688Y0398950D03*
X0475688Y0404950D03*
X0468995Y0404950D03*
X0468995Y0398950D03*
X0468995Y0167950D03*
X0468995Y0161950D03*
X0475688Y0161950D03*
X0475688Y0167950D03*
X0481995Y0167950D03*
X0481995Y0161950D03*
X0481995Y0155950D03*
X0488688Y0155950D03*
X0488688Y0161950D03*
X0488688Y0167950D03*
X0475688Y0139950D03*
X0475688Y0133950D03*
X0468995Y0133950D03*
X0468995Y0139950D03*
X0481995Y0133950D03*
X0488688Y0133950D03*
X0437188Y0138450D03*
X0437188Y0144450D03*
X0430495Y0144450D03*
X0430495Y0138450D03*
X0336688Y0133950D03*
X0329995Y0133950D03*
X0323688Y0133950D03*
X0323688Y0139950D03*
X0316995Y0139950D03*
X0316995Y0133950D03*
X0329995Y0155950D03*
X0329995Y0161950D03*
X0329995Y0167950D03*
X0323688Y0167950D03*
X0323688Y0161950D03*
X0316995Y0161950D03*
X0316995Y0167950D03*
X0336688Y0167950D03*
X0336688Y0161950D03*
X0336688Y0155950D03*
X0285188Y0144450D03*
X0285188Y0138450D03*
X0278495Y0138450D03*
X0278495Y0144450D03*
X0184688Y0133950D03*
X0177995Y0133950D03*
X0171688Y0133950D03*
X0171688Y0139950D03*
X0164995Y0139950D03*
X0164995Y0133950D03*
X0177995Y0155950D03*
X0177995Y0161950D03*
X0177995Y0167950D03*
X0171688Y0167950D03*
X0171688Y0161950D03*
X0164995Y0161950D03*
X0164995Y0167950D03*
X0184688Y0167950D03*
X0184688Y0161950D03*
X0184688Y0155950D03*
X0133188Y0144450D03*
X0133188Y0138450D03*
X0126495Y0138450D03*
X0126495Y0144450D03*
D14*
X0164602Y0146513D03*
X0172082Y0146513D03*
X0168342Y0154780D03*
X0316602Y0146513D03*
X0324082Y0146513D03*
X0320342Y0154780D03*
X0468602Y0146513D03*
X0472342Y0154780D03*
X0476082Y0146513D03*
X0476082Y0383513D03*
X0472342Y0391780D03*
X0468602Y0383513D03*
X0324082Y0383513D03*
X0316602Y0383513D03*
X0320342Y0391780D03*
X0172082Y0383513D03*
X0164602Y0383513D03*
X0168342Y0391780D03*
D15*
X0169228Y0414587D03*
X0167259Y0414587D03*
X0165291Y0414587D03*
X0163322Y0414587D03*
X0161354Y0414587D03*
X0159385Y0414587D03*
X0157417Y0414587D03*
X0155448Y0414587D03*
X0153480Y0414587D03*
X0151511Y0414587D03*
X0149543Y0414587D03*
X0147574Y0414587D03*
X0145606Y0414587D03*
X0143637Y0414587D03*
X0141669Y0414587D03*
X0139700Y0414587D03*
X0137732Y0414587D03*
X0135763Y0414587D03*
X0133795Y0414587D03*
X0131826Y0414587D03*
X0129858Y0414587D03*
X0127889Y0414587D03*
X0125921Y0414587D03*
X0123952Y0414587D03*
X0121984Y0414587D03*
X0120015Y0414587D03*
X0118047Y0414587D03*
X0116078Y0414587D03*
X0114110Y0414587D03*
X0112141Y0414587D03*
X0110173Y0414587D03*
X0108204Y0414587D03*
X0106236Y0414587D03*
X0104267Y0414587D03*
X0102298Y0414587D03*
X0100330Y0414587D03*
X0098361Y0414587D03*
X0096393Y0414587D03*
X0094424Y0414587D03*
X0092456Y0414587D03*
X0244456Y0414587D03*
X0246424Y0414587D03*
X0248393Y0414587D03*
X0250361Y0414587D03*
X0252330Y0414587D03*
X0254298Y0414587D03*
X0256267Y0414587D03*
X0258236Y0414587D03*
X0260204Y0414587D03*
X0262173Y0414587D03*
X0264141Y0414587D03*
X0266110Y0414587D03*
X0268078Y0414587D03*
X0270047Y0414587D03*
X0272015Y0414587D03*
X0273984Y0414587D03*
X0275952Y0414587D03*
X0277921Y0414587D03*
X0279889Y0414587D03*
X0281858Y0414587D03*
X0283826Y0414587D03*
X0285795Y0414587D03*
X0287763Y0414587D03*
X0289732Y0414587D03*
X0291700Y0414587D03*
X0293669Y0414587D03*
X0295637Y0414587D03*
X0297606Y0414587D03*
X0299574Y0414587D03*
X0301543Y0414587D03*
X0303511Y0414587D03*
X0305480Y0414587D03*
X0307448Y0414587D03*
X0309417Y0414587D03*
X0311385Y0414587D03*
X0313354Y0414587D03*
X0315322Y0414587D03*
X0317291Y0414587D03*
X0319259Y0414587D03*
X0321228Y0414587D03*
X0396456Y0414587D03*
X0398424Y0414587D03*
X0400393Y0414587D03*
X0402361Y0414587D03*
X0404330Y0414587D03*
X0406298Y0414587D03*
X0408267Y0414587D03*
X0410236Y0414587D03*
X0412204Y0414587D03*
X0414173Y0414587D03*
X0416141Y0414587D03*
X0418110Y0414587D03*
X0420078Y0414587D03*
X0422047Y0414587D03*
X0424015Y0414587D03*
X0425984Y0414587D03*
X0427952Y0414587D03*
X0429921Y0414587D03*
X0431889Y0414587D03*
X0433858Y0414587D03*
X0435826Y0414587D03*
X0437795Y0414587D03*
X0439763Y0414587D03*
X0441732Y0414587D03*
X0443700Y0414587D03*
X0445669Y0414587D03*
X0447637Y0414587D03*
X0449606Y0414587D03*
X0451574Y0414587D03*
X0453543Y0414587D03*
X0455511Y0414587D03*
X0457480Y0414587D03*
X0459448Y0414587D03*
X0461417Y0414587D03*
X0463385Y0414587D03*
X0465354Y0414587D03*
X0467322Y0414587D03*
X0469291Y0414587D03*
X0471259Y0414587D03*
X0473228Y0414587D03*
X0473228Y0177587D03*
X0471259Y0177587D03*
X0469291Y0177587D03*
X0467322Y0177587D03*
X0465354Y0177587D03*
X0463385Y0177587D03*
X0461417Y0177587D03*
X0459448Y0177587D03*
X0457480Y0177587D03*
X0455511Y0177587D03*
X0453543Y0177587D03*
X0451574Y0177587D03*
X0449606Y0177587D03*
X0447637Y0177587D03*
X0445669Y0177587D03*
X0443700Y0177587D03*
X0441732Y0177587D03*
X0439763Y0177587D03*
X0437795Y0177587D03*
X0435826Y0177587D03*
X0433858Y0177587D03*
X0431889Y0177587D03*
X0429921Y0177587D03*
X0427952Y0177587D03*
X0425984Y0177587D03*
X0424015Y0177587D03*
X0422047Y0177587D03*
X0420078Y0177587D03*
X0418110Y0177587D03*
X0416141Y0177587D03*
X0414173Y0177587D03*
X0412204Y0177587D03*
X0410236Y0177587D03*
X0408267Y0177587D03*
X0406298Y0177587D03*
X0404330Y0177587D03*
X0402361Y0177587D03*
X0400393Y0177587D03*
X0398424Y0177587D03*
X0396456Y0177587D03*
X0321228Y0177587D03*
X0319259Y0177587D03*
X0317291Y0177587D03*
X0315322Y0177587D03*
X0313354Y0177587D03*
X0311385Y0177587D03*
X0309417Y0177587D03*
X0307448Y0177587D03*
X0305480Y0177587D03*
X0303511Y0177587D03*
X0301543Y0177587D03*
X0299574Y0177587D03*
X0297606Y0177587D03*
X0295637Y0177587D03*
X0293669Y0177587D03*
X0291700Y0177587D03*
X0289732Y0177587D03*
X0287763Y0177587D03*
X0285795Y0177587D03*
X0283826Y0177587D03*
X0281858Y0177587D03*
X0279889Y0177587D03*
X0277921Y0177587D03*
X0275952Y0177587D03*
X0273984Y0177587D03*
X0272015Y0177587D03*
X0270047Y0177587D03*
X0268078Y0177587D03*
X0266110Y0177587D03*
X0264141Y0177587D03*
X0262173Y0177587D03*
X0260204Y0177587D03*
X0258236Y0177587D03*
X0256267Y0177587D03*
X0254298Y0177587D03*
X0252330Y0177587D03*
X0250361Y0177587D03*
X0248393Y0177587D03*
X0246424Y0177587D03*
X0244456Y0177587D03*
X0169228Y0177587D03*
X0167259Y0177587D03*
X0165291Y0177587D03*
X0163322Y0177587D03*
X0161354Y0177587D03*
X0159385Y0177587D03*
X0157417Y0177587D03*
X0155448Y0177587D03*
X0153480Y0177587D03*
X0151511Y0177587D03*
X0149543Y0177587D03*
X0147574Y0177587D03*
X0145606Y0177587D03*
X0143637Y0177587D03*
X0141669Y0177587D03*
X0139700Y0177587D03*
X0137732Y0177587D03*
X0135763Y0177587D03*
X0133795Y0177587D03*
X0131826Y0177587D03*
X0129858Y0177587D03*
X0127889Y0177587D03*
X0125921Y0177587D03*
X0123952Y0177587D03*
X0121984Y0177587D03*
X0120015Y0177587D03*
X0118047Y0177587D03*
X0116078Y0177587D03*
X0114110Y0177587D03*
X0112141Y0177587D03*
X0110173Y0177587D03*
X0108204Y0177587D03*
X0106236Y0177587D03*
X0104267Y0177587D03*
X0102298Y0177587D03*
X0100330Y0177587D03*
X0098361Y0177587D03*
X0096393Y0177587D03*
X0094424Y0177587D03*
X0092456Y0177587D03*
D16*
X0085960Y0189989D03*
X0175724Y0189989D03*
X0237960Y0189989D03*
X0327724Y0189989D03*
X0389960Y0189989D03*
X0479724Y0189989D03*
X0479724Y0426989D03*
X0389960Y0426989D03*
X0327724Y0426989D03*
X0237960Y0426989D03*
X0175724Y0426989D03*
X0085960Y0426989D03*
D17*
X0082495Y0400544D03*
X0082495Y0396213D03*
X0082495Y0391883D03*
X0082495Y0387552D03*
X0082495Y0383221D03*
X0082495Y0378891D03*
X0082495Y0374560D03*
X0082495Y0370229D03*
X0234495Y0370229D03*
X0234495Y0374560D03*
X0234495Y0378891D03*
X0234495Y0383221D03*
X0234495Y0387552D03*
X0234495Y0391883D03*
X0234495Y0396213D03*
X0234495Y0400544D03*
X0386495Y0400544D03*
X0386495Y0396213D03*
X0386495Y0391883D03*
X0386495Y0387552D03*
X0386495Y0383221D03*
X0386495Y0378891D03*
X0386495Y0374560D03*
X0386495Y0370229D03*
X0386495Y0163544D03*
X0386495Y0159213D03*
X0386495Y0154883D03*
X0386495Y0150552D03*
X0386495Y0146221D03*
X0386495Y0141891D03*
X0386495Y0137560D03*
X0386495Y0133229D03*
X0234495Y0133229D03*
X0234495Y0137560D03*
X0234495Y0141891D03*
X0234495Y0146221D03*
X0234495Y0150552D03*
X0234495Y0154883D03*
X0234495Y0159213D03*
X0234495Y0163544D03*
X0082495Y0163544D03*
X0082495Y0159213D03*
X0082495Y0154883D03*
X0082495Y0150552D03*
X0082495Y0146221D03*
X0082495Y0141891D03*
X0082495Y0137560D03*
X0082495Y0133229D03*
D18*
X0093047Y0126143D03*
X0245047Y0126143D03*
X0397047Y0126143D03*
X0397047Y0363143D03*
X0245047Y0363143D03*
X0093047Y0363143D03*
D19*
X0098047Y0363143D03*
X0250047Y0363143D03*
X0402047Y0363143D03*
X0402047Y0126143D03*
X0250047Y0126143D03*
X0098047Y0126143D03*
D20*
X0108322Y0126143D03*
X0106078Y0168170D03*
X0258078Y0168170D03*
X0260322Y0126143D03*
X0412322Y0126143D03*
X0410078Y0168170D03*
X0412322Y0363143D03*
X0410078Y0405170D03*
X0260322Y0363143D03*
X0258078Y0405170D03*
X0106078Y0405170D03*
X0108322Y0363143D03*
D21*
X0093539Y0405170D03*
X0245539Y0405170D03*
X0397539Y0405170D03*
X0397539Y0168170D03*
X0245539Y0168170D03*
X0093539Y0168170D03*
D22*
X0110980Y0155650D03*
X0110980Y0139154D03*
X0262980Y0139154D03*
X0262980Y0155650D03*
X0414980Y0155650D03*
X0414980Y0139154D03*
X0414980Y0376154D03*
X0414980Y0392650D03*
X0262980Y0392650D03*
X0262980Y0376154D03*
X0110980Y0376154D03*
X0110980Y0392650D03*
D23*
X0072220Y0421619D02*
X0069464Y0421619D01*
X0069464Y0424375D01*
X0072220Y0424375D01*
X0072220Y0421619D01*
X0072220Y0422741D02*
X0069464Y0422741D01*
X0069464Y0423863D02*
X0072220Y0423863D01*
X0072220Y0428524D02*
X0069464Y0428524D01*
X0069464Y0431280D01*
X0072220Y0431280D01*
X0072220Y0428524D01*
X0072220Y0429646D02*
X0069464Y0429646D01*
X0069464Y0430768D02*
X0072220Y0430768D01*
X0221464Y0428524D02*
X0224220Y0428524D01*
X0221464Y0428524D02*
X0221464Y0431280D01*
X0224220Y0431280D01*
X0224220Y0428524D01*
X0224220Y0429646D02*
X0221464Y0429646D01*
X0221464Y0430768D02*
X0224220Y0430768D01*
X0224220Y0421619D02*
X0221464Y0421619D01*
X0221464Y0424375D01*
X0224220Y0424375D01*
X0224220Y0421619D01*
X0224220Y0422741D02*
X0221464Y0422741D01*
X0221464Y0423863D02*
X0224220Y0423863D01*
X0373464Y0421619D02*
X0376220Y0421619D01*
X0373464Y0421619D02*
X0373464Y0424375D01*
X0376220Y0424375D01*
X0376220Y0421619D01*
X0376220Y0422741D02*
X0373464Y0422741D01*
X0373464Y0423863D02*
X0376220Y0423863D01*
X0376220Y0428524D02*
X0373464Y0428524D01*
X0373464Y0431280D01*
X0376220Y0431280D01*
X0376220Y0428524D01*
X0376220Y0429646D02*
X0373464Y0429646D01*
X0373464Y0430768D02*
X0376220Y0430768D01*
X0376220Y0191524D02*
X0373464Y0191524D01*
X0373464Y0194280D01*
X0376220Y0194280D01*
X0376220Y0191524D01*
X0376220Y0192646D02*
X0373464Y0192646D01*
X0373464Y0193768D02*
X0376220Y0193768D01*
X0376220Y0184619D02*
X0373464Y0184619D01*
X0373464Y0187375D01*
X0376220Y0187375D01*
X0376220Y0184619D01*
X0376220Y0185741D02*
X0373464Y0185741D01*
X0373464Y0186863D02*
X0376220Y0186863D01*
X0224220Y0184619D02*
X0221464Y0184619D01*
X0221464Y0187375D01*
X0224220Y0187375D01*
X0224220Y0184619D01*
X0224220Y0185741D02*
X0221464Y0185741D01*
X0221464Y0186863D02*
X0224220Y0186863D01*
X0224220Y0191524D02*
X0221464Y0191524D01*
X0221464Y0194280D01*
X0224220Y0194280D01*
X0224220Y0191524D01*
X0224220Y0192646D02*
X0221464Y0192646D01*
X0221464Y0193768D02*
X0224220Y0193768D01*
X0072220Y0191524D02*
X0069464Y0191524D01*
X0069464Y0194280D01*
X0072220Y0194280D01*
X0072220Y0191524D01*
X0072220Y0192646D02*
X0069464Y0192646D01*
X0069464Y0193768D02*
X0072220Y0193768D01*
X0072220Y0184619D02*
X0069464Y0184619D01*
X0069464Y0187375D01*
X0072220Y0187375D01*
X0072220Y0184619D01*
X0072220Y0185741D02*
X0069464Y0185741D01*
X0069464Y0186863D02*
X0072220Y0186863D01*
D24*
X0075842Y0186103D03*
X0075842Y0192796D03*
X0227842Y0192796D03*
X0227842Y0186103D03*
X0379842Y0186103D03*
X0379842Y0192796D03*
X0379842Y0423103D03*
X0379842Y0429796D03*
X0227842Y0429796D03*
X0227842Y0423103D03*
X0075842Y0423103D03*
X0075842Y0429796D03*
M02*
